<svg aria-hidden="true" style="position: absolute; width: 0; height: 0; overflow: hidden;" version="1.1" xmlns="http://www.w3.org/2000/svg" xmlns:xlink="http://www.w3.org/1999/xlink">
<defs>
  <symbol id="icon-menu" viewBox="0 0 32 32">
    <path d="M1.709 0.058c-0.582 0.115-1.206 0.599-1.471 1.142-0.62 1.267 0.119 2.782 1.495 3.067 0.181 0.037 4.829 0.050 14.427 0.041l14.16-0.014 0.306-0.124c0.548-0.221 1.062-0.757 1.248-1.303 0.127-0.373 0.127-1.041 0-1.414-0.187-0.547-0.698-1.077-1.26-1.307l-0.294-0.119-14.186-0.008c-7.973-0.004-14.29 0.013-14.424 0.039zM1.456 13.966c-0.737 0.255-1.267 0.889-1.405 1.68-0.164 0.942 0.345 1.904 1.229 2.322l0.293 0.138h28.854l0.293-0.138c0.887-0.419 1.393-1.379 1.228-2.328-0.121-0.696-0.586-1.305-1.228-1.609l-0.293-0.138-14.346-0.011c-13.697-0.011-14.359-0.008-14.625 0.084zM1.613 27.762c-0.418 0.113-0.669 0.259-0.969 0.564-1.208 1.227-0.565 3.311 1.117 3.62 0.197 0.036 4.99 0.050 14.427 0.041l14.131-0.014 0.294-0.119c0.562-0.23 1.073-0.76 1.26-1.307 0.127-0.373 0.127-1.041 0-1.414-0.186-0.546-0.7-1.081-1.248-1.302l-0.306-0.124-14.213-0.010c-12.125-0.009-14.254 0.001-14.493 0.066z"></path>
  </symbol>
  <symbol id="icon-x" viewBox="0 0 32 32">
    <path stroke-linejoin="round" stroke-linecap="round" stroke-miterlimit="4" stroke-width="2.6667" d="M24 8l-16 16M8 8l16 16"></path>
  </symbol>
  <symbol id="icon-instagram" viewBox="0 0 32 32">
    <path d="M10.4 2.667h11.2c4.253 0 7.733 3.467 7.733 7.733v11.2c0 2.040-0.827 4.013-2.267 5.467-1.453 1.44-3.427 2.267-5.467 2.267h-11.2c-4.267 0-7.733-3.48-7.733-7.733v-11.2c0-2.053 0.813-4.027 2.253-5.48 1.453-1.44 3.427-2.253 5.48-2.253zM10.133 5.333c-1.28 0-2.507 0.493-3.4 1.4-0.907 0.893-1.4 2.12-1.4 3.4v11.72c0 2.653 2.147 4.813 4.8 4.813h11.72c1.28 0 2.507-0.507 3.4-1.413 0.907-0.893 1.413-2.12 1.413-3.4v-11.72c0-2.653-2.16-4.8-4.813-4.8h-11.72zM23 7.333c0.44 0 0.853 0.173 1.173 0.48 0.307 0.32 0.493 0.733 0.493 1.187 0 0.44-0.187 0.853-0.493 1.173-0.32 0.307-0.733 0.493-1.173 0.493-0.453 0-0.867-0.187-1.187-0.493-0.307-0.32-0.48-0.733-0.48-1.173 0-0.453 0.173-0.867 0.48-1.187 0.32-0.307 0.733-0.48 1.187-0.48zM16 9.333c1.76 0 3.453 0.693 4.707 1.947s1.96 2.947 1.96 4.72c0 1.76-0.707 3.453-1.96 4.707s-2.947 1.96-4.707 1.96c-1.773 0-3.467-0.707-4.72-1.96s-1.947-2.947-1.947-4.707c0-1.773 0.693-3.467 1.947-4.72s2.947-1.947 4.72-1.947zM16 12c-1.067 0-2.080 0.413-2.84 1.16-0.747 0.76-1.16 1.773-1.16 2.84 0 1.053 0.413 2.067 1.16 2.827 0.76 0.747 1.773 1.173 2.84 1.173 1.053 0 2.067-0.427 2.827-1.173 0.747-0.76 1.173-1.773 1.173-2.827 0-1.067-0.427-2.080-1.173-2.84-0.76-0.747-1.773-1.16-2.827-1.16z"></path>
  </symbol>
  <symbol id="icon-facebook" viewBox="0 0 32 32">
     <path d="M29.333 16c0-7.373-5.973-13.333-13.333-13.333-7.373 0-13.333 5.96-13.333 13.333 0 6.453 4.573 11.827 10.667 13.067v-9.067h-2.667v-4h2.667v-3.333c0-2.573 2.093-4.667 4.667-4.667h3.333v4h-2.667c-0.733 0-1.333 0.587-1.333 1.333v2.667h4v4h-4v9.267c6.72-0.667 12-6.36 12-13.267z"></path>
  </symbol>
 <symbol id="icon-clock" viewBox="0 0 32 32">
<path d="M16 0.314c-2.060 0-4.1 0.406-6.003 1.194s-3.632 1.944-5.089 3.4c-2.942 2.942-4.594 6.932-4.594 11.092s1.653 8.15 4.594 11.092c1.457 1.457 3.186 2.612 5.089 3.4s3.943 1.194 6.003 1.194c4.16 0 8.15-1.653 11.092-4.594s4.594-6.932 4.594-11.092c0-2.060-0.406-4.1-1.194-6.003s-1.944-3.632-3.4-5.089c-1.457-1.457-3.186-2.612-5.089-3.4s-3.943-1.194-6.003-1.194zM22.588 22.588l-8.157-5.020v-9.412h2.353v8.157l7.059 4.235-1.255 2.039z"></path>
</symbol>
<symbol id="icon-nav" viewBox="0 0 22 32">
<path d="M11.2 32c0 0-11.2-14.608-11.2-20.8 0-1.471 0.29-2.927 0.853-4.286s1.388-2.594 2.428-3.634c1.040-1.040 2.275-1.865 3.634-2.428s2.815-0.853 4.286-0.853c1.471 0 2.927 0.29 4.286 0.853s2.594 1.388 3.634 2.428 1.865 2.275 2.428 3.634c0.563 1.359 0.853 2.815 0.853 4.286 0 6.192-11.2 20.8-11.2 20.8zM11.2 14.4c0.849 0 1.663-0.337 2.263-0.937s0.937-1.414 0.937-2.263-0.337-1.663-0.937-2.263c-0.6-0.6-1.414-0.937-2.263-0.937s-1.663 0.337-2.263 0.937c-0.6 0.6-0.937 1.414-0.937 2.263s0.337 1.663 0.937 2.263c0.6 0.6 1.414 0.937 2.263 0.937z"></path>
</symbol> 
<symbol id="icon-car" viewBox="0 0 36 32">
<path d="M0.628 1.882c0-0.866 0.702-1.568 1.568-1.569h17.256c0.866 0.001 1.568 0.703 1.568 1.569v0 7.843h6.275c4.331 0 7.843 3.511 7.843 7.843 0 0 0 0.001 0 0.001v-0 6.274c0 0.001 0 0.002 0 0.002 0 2.111-1.391 3.898-3.306 4.494l-0.033 0.009c-0.605 1.949-2.392 3.34-4.503 3.34-2.038 0-3.773-1.295-4.427-3.107l-0.010-0.033h-9.946c-0.665 1.845-2.4 3.14-4.438 3.14-2.112 0-3.899-1.391-4.495-3.307l-0.009-0.033c-1.95-0.605-3.341-2.392-3.341-4.504 0-0 0-0.001 0-0.001v0-6.274h9.412c0.867 0 1.569-0.702 1.569-1.569s-0.702-1.569-1.569-1.569h-9.412v-3.137h6.274c0.85-0.021 1.531-0.715 1.531-1.568s-0.681-1.547-1.529-1.568l-0.002-0h-6.274v-6.275zM21.019 25.412h1.837c0.665-1.844 2.4-3.138 4.437-3.138 1.862 0 3.472 1.082 4.235 2.651l0.012 0.028c0.284-0.283 0.459-0.674 0.459-1.107 0-0.001 0-0.002 0-0.003v0-6.274c0-2.599-2.107-4.706-4.706-4.706v0h-6.275v12.549zM10.040 26.981c0-0.866-0.702-1.568-1.568-1.568s-1.568 0.702-1.568 1.568v0c0 0.866 0.702 1.568 1.568 1.568s1.568-0.702 1.568-1.568v0zM26.185 25.871c-0.284 0.283-0.46 0.674-0.46 1.106 0 0.001 0 0.002 0 0.004v-0c0 0 0 0 0 0 0 0.866 0.702 1.569 1.569 1.569s1.569-0.702 1.569-1.569c0-0.866-0.702-1.569-1.569-1.569-0.433 0-0.825 0.175-1.109 0.459l0-0z"></path>
</symbol>
</defs>
</svg>